<svg width="188" height="67" viewBox="0 0 188 67" fill="none" xmlns="http://www.w3.org/2000/svg">
<path d="M28.8394 26.7685L0.101929 43.0339L0.101929 39.0076L28.8394 22.8663L38.2258 27.7839V31.5621L28.8394 26.7685Z" fill="#97D666"/>
<path d="M28.8394 18.7158L0.101929 35.3535L0.101929 31.4512L28.8394 14.9376L38.2258 19.5317V23.434L28.8394 18.7158Z" fill="#97D666"/>
<path d="M28.8394 11.8309L17.2162 18.6092V14.7069L28.8394 7.92862L38.2259 12.2989L38.2258 16.3252L28.8394 11.8309Z" fill="#97D666"/>
<path d="M28.8394 4.02635L17.2162 10.9287L17.2162 7.1505L28.8394 0L38.2258 4.29481L38.2259 8.52067L28.8394 4.02635Z" fill="#97D666"/>
<path d="M23.3982 44.0421L52.1241 60.7968L48.6372 62.8099L20.0725 45.9932L20.0725 35.4055L23.3982 33.5164L23.3982 44.0421Z" fill="#97D666"/>
<path d="M16.3917 48.0684L45.4726 64.637L42.0932 66.5881L13.066 49.9575L13.066 39.5316L16.3917 37.5805V48.0684Z" fill="#97D666"/>
<path d="M10.3323 51.5109L22.4145 58.1877L19.0351 60.1388L6.89906 53.462L6.89906 43.148L10.3323 41.1348L10.3323 51.5109Z" fill="#97D666"/>
<path d="M3.57331 55.4132L15.763 62.0279L12.491 63.917L3.51375e-06 57.4263L0 47.15L3.57331 45.0371L3.57331 55.4132Z" fill="#97D666"/>
<path d="M41.1495 38.7317V5.71159L44.5827 7.72477V40.6828L35.4357 46.3529L32.1637 44.4638L41.1495 38.7317Z" fill="#97D666"/>
<path d="M47.9622 42.758V9.55184L51.2879 11.503V44.6472L42.5823 50.479L39.2029 48.5279L47.9622 42.758Z" fill="#97D666"/>
<path d="M53.9154 46.2005V32.7454L57.2948 34.6965V48.1516L48.8462 54.0954L45.3592 52.0822L53.9154 46.2005Z" fill="#97D666"/>
<path d="M60.6206 50.1028V36.5856L64 38.4747V52.116L55.7779 58.0974L52.1182 55.9845L60.6206 50.1028Z" fill="#97D666"/>
<path d="M89.8155 43.6806H79V40.4861H82.6591V24.5139H79V21.3194H89.8155V24.5139H86.1564V40.4861H89.8155V43.6806Z" fill="#344E6C"/>
<path d="M111.14 21.3194H114.637V43.6806H111.432L98.2522 26.6222C98.3817 27.9213 98.5004 29.2204 98.6084 30.5194C98.7379 31.7972 98.8027 33.0856 98.8027 34.3847V43.6806H95.3054V21.3194H98.4465L111.626 38.7292C111.432 37.1745 111.302 35.5028 111.237 33.7139C111.172 31.9037 111.14 30.2213 111.14 28.6667V21.3194Z" fill="#344E6C"/>
<path d="M129.856 21.3194C131.604 21.3194 133.137 21.6176 134.454 22.2139C135.792 22.7889 136.904 23.5981 137.789 24.6417C138.674 25.6639 139.343 26.8565 139.797 28.2194C140.25 29.5611 140.477 30.988 140.477 32.5C140.477 34.5444 140.077 36.4185 139.279 38.1222C138.48 39.8046 137.293 41.1569 135.717 42.1792C134.141 43.1801 132.187 43.6806 129.856 43.6806H120.983V21.3194H129.856ZM129.694 40.3583C131.399 40.3583 132.781 40.0069 133.839 39.3042C134.896 38.5801 135.674 37.6218 136.17 36.4292C136.667 35.2366 136.915 33.9269 136.915 32.5C136.915 31.0944 136.667 29.7954 136.17 28.6028C135.674 27.4102 134.896 26.4519 133.839 25.7278C132.781 25.0037 131.399 24.6417 129.694 24.6417H124.48V40.3583H129.694Z" fill="#344E6C"/>
<path d="M162.012 28.4431C162.012 29.7847 161.602 31.0306 160.782 32.1806C159.983 33.3306 158.936 34.1824 157.641 34.7361L162.919 43.7125L158.677 43.6806L153.884 35.2792H148.703V43.6806H145.206V21.3194H154.856C156.043 21.3194 157.177 21.6069 158.256 22.1819C159.357 22.7569 160.253 23.5769 160.944 24.6417C161.656 25.7065 162.012 26.9736 162.012 28.4431ZM154.273 24.6417H148.703V31.9569H155.18C156.216 31.9569 157.015 31.5949 157.576 30.8708C158.159 30.1468 158.45 29.3269 158.45 28.4111C158.45 27.2398 158.04 26.3241 157.22 25.6639C156.399 24.9824 155.417 24.6417 154.273 24.6417Z" fill="#344E6C"/>
<path d="M188 32.5C188 34.1185 187.73 35.6306 187.19 37.0361C186.651 38.4204 185.874 39.6343 184.859 40.6778C183.866 41.7213 182.689 42.5412 181.329 43.1375C179.991 43.7125 178.512 44 176.893 44C175.274 44 173.784 43.7125 172.424 43.1375C171.064 42.5412 169.888 41.7213 168.895 40.6778C167.902 39.6343 167.135 38.4204 166.596 37.0361C166.056 35.6306 165.786 34.1185 165.786 32.5C165.786 30.8815 166.056 29.3801 166.596 27.9958C167.135 26.5903 167.902 25.3657 168.895 24.3222C169.888 23.2787 171.064 22.4694 172.424 21.8944C173.784 21.2981 175.274 21 176.893 21C178.512 21 179.991 21.2981 181.329 21.8944C182.689 22.4694 183.866 23.2787 184.859 24.3222C185.874 25.3657 186.651 26.5903 187.19 27.9958C187.73 29.3801 188 30.8815 188 32.5ZM184.438 32.5C184.438 30.9454 184.114 29.5611 183.467 28.3472C182.819 27.112 181.923 26.1431 180.779 25.4403C179.656 24.7162 178.361 24.3542 176.893 24.3542C175.404 24.3542 174.087 24.7162 172.943 25.4403C171.82 26.1431 170.935 27.112 170.287 28.3472C169.661 29.5611 169.348 30.9454 169.348 32.5C169.348 34.0546 169.661 35.4495 170.287 36.6847C170.935 37.8986 171.82 38.8676 172.943 39.5917C174.087 40.2944 175.404 40.6458 176.893 40.6458C178.361 40.6458 179.656 40.2944 180.779 39.5917C181.923 38.8676 182.819 37.888 183.467 36.6528C184.114 35.4176 184.438 34.0333 184.438 32.5Z" fill="#344E6C"/>
</svg>
